# xmcd
#
# Track frame offsets:
#	150
#	12821
#	24612
#	37626
#	51477
#	62961
#	75477
#	85874
#	92381
#	102892
#	116144
#	130654
#	141369
#	156993
#
# Disc length: 2222 seconds
#
# Revision: 1
# Processed by: cddbd v1.5.2PL0 Copyright (c) Steve Scherf et al.
# Submitted via: audiograbber 1.83.01
#
DISCID=ac08ac0e
DTITLE=J.J.Cale - Rewind - International version
DYEAR=2007
DGENRE=Rock
TTITLE0=Guess I lose
TTITLE1=Waymore's blues
TTITLE2=Rollin'
TTITLE3=Golden ring
TTITLE4=My cricket
TTITLE5=Since you said goodbye
TTITLE6=Seven day woman
TTITLE7=Bluebird
TTITLE8=My baby and me
TTITLE9=Lawdy Mama
TTITLE10=Blue sunday
TTITLE11=Out of style
TTITLE12=Ooh la LA
TTITLE13=All Mama's children
EXTD=Musicload
EXTT0=
EXTT1=
EXTT2=
EXTT3=
EXTT4=
EXTT5=
EXTT6=
EXTT7=
EXTT8=
EXTT9=
EXTT10=
EXTT11=
EXTT12=
EXTT13=
PLAYORDER=
